<svg width="444" height="335" viewBox="0 0 444 335" fill="none" xmlns="http://www.w3.org/2000/svg">
<rect width="335" height="335" fill="black"/>
<path d="M67.6848 154.798H35.9663V65.3221H67.947C76.947 65.3221 84.6946 67.1134 91.1897 70.6959C97.6849 74.2493 102.68 79.361 106.175 86.0309C109.7 92.7008 111.462 100.681 111.462 109.973C111.462 119.293 109.7 127.303 106.175 134.002C102.68 140.701 97.6558 145.842 91.1024 149.424C84.5781 153.007 76.7722 154.798 67.6848 154.798ZM54.8838 138.589H66.8984C72.4907 138.589 77.1946 137.599 81.0101 135.618C84.8548 133.609 87.7383 130.507 89.6606 126.313C91.6121 122.089 92.5878 116.643 92.5878 109.973C92.5878 103.361 91.6121 97.9581 89.6606 93.764C87.7383 89.5698 84.8693 86.4824 81.0538 84.5018C77.2382 82.5212 72.5344 81.5309 66.9421 81.5309H54.8838V138.589ZM174.014 91.0552C173.664 87.5309 172.164 84.7931 169.514 82.8416C166.863 80.8901 163.266 79.9144 158.723 79.9144C155.635 79.9144 153.028 80.3513 150.902 81.2251C148.776 82.0697 147.145 83.2494 146.009 84.7639C144.902 86.2785 144.349 87.9969 144.349 89.9193C144.291 91.5212 144.626 92.9193 145.354 94.1135C146.111 95.3076 147.145 96.3416 148.456 97.2154C149.766 98.0601 151.281 98.8028 152.999 99.4436C154.718 100.055 156.553 100.58 158.504 101.016L166.543 102.939C170.446 103.813 174.029 104.978 177.291 106.434C180.553 107.89 183.378 109.681 185.766 111.808C188.155 113.934 190.004 116.439 191.315 119.322C192.655 122.206 193.339 125.512 193.368 129.24C193.339 134.716 191.941 139.463 189.174 143.483C186.436 147.473 182.475 150.575 177.291 152.788C172.135 154.973 165.917 156.065 158.635 156.065C151.412 156.065 145.121 154.958 139.761 152.745C134.431 150.531 130.266 147.254 127.266 142.915C124.295 138.546 122.737 133.143 122.592 126.706H140.897C141.101 129.706 141.961 132.211 143.475 134.22C145.019 136.201 147.072 137.701 149.635 138.72C152.228 139.711 155.155 140.206 158.417 140.206C161.621 140.206 164.402 139.74 166.762 138.808C169.15 137.876 170.999 136.58 172.31 134.919C173.621 133.259 174.276 131.351 174.276 129.196C174.276 127.186 173.679 125.497 172.485 124.128C171.32 122.759 169.601 121.594 167.33 120.633C165.087 119.672 162.334 118.798 159.072 118.012L149.329 115.565C141.786 113.73 135.829 110.861 131.46 106.958C127.092 103.055 124.922 97.7979 124.951 91.1863C124.922 85.7688 126.363 81.0358 129.276 76.9872C132.218 72.9387 136.252 69.7785 141.378 67.5066C146.504 65.2348 152.329 64.0988 158.854 64.0988C165.495 64.0988 171.291 65.2348 176.242 67.5066C181.223 69.7785 185.097 72.9387 187.864 76.9872C190.631 81.0358 192.058 85.7251 192.145 91.0552H174.014ZM35.9663 252.798V163.322H54.8838V200.24H93.2868V163.322H112.161V252.798H93.2868V215.837H54.8838V252.798H35.9663ZM157.991 254.109C151.088 254.109 145.146 252.711 140.166 249.915C135.214 247.089 131.399 243.099 128.719 237.944C126.039 232.759 124.7 226.628 124.7 219.55C124.7 212.648 126.039 206.589 128.719 201.376C131.399 196.162 135.17 192.099 140.035 189.186C144.928 186.274 150.666 184.817 157.248 184.817C161.675 184.817 165.797 185.531 169.612 186.958C173.457 188.356 176.806 190.468 179.661 193.293C182.544 196.118 184.787 199.672 186.389 203.953C187.991 208.206 188.792 213.186 188.792 218.895V224.007H132.127V212.473H171.272C171.272 209.793 170.69 207.419 169.525 205.351C168.36 203.283 166.743 201.667 164.675 200.502C162.637 199.308 160.263 198.711 157.554 198.711C154.729 198.711 152.224 199.366 150.039 200.677C147.884 201.958 146.195 203.691 144.971 205.876C143.748 208.031 143.122 210.434 143.093 213.084V224.05C143.093 227.371 143.704 230.24 144.928 232.657C146.18 235.075 147.942 236.939 150.214 238.25C152.486 239.56 155.18 240.216 158.297 240.216C160.365 240.216 162.258 239.924 163.976 239.342C165.695 238.759 167.166 237.885 168.389 236.72C169.612 235.555 170.544 234.128 171.185 232.439L188.399 233.575C187.525 237.711 185.734 241.322 183.025 244.41C180.345 247.468 176.879 249.856 172.627 251.575C168.404 253.264 163.525 254.109 157.991 254.109ZM219.549 163.322V252.798H200.938V163.322H219.549ZM234.458 277.963V185.691H252.808V196.963H253.638C254.454 195.157 255.633 193.322 257.177 191.458C258.75 189.565 260.788 187.992 263.293 186.74C265.827 185.458 268.973 184.817 272.73 184.817C277.623 184.817 282.138 186.099 286.274 188.662C290.41 191.196 293.716 195.026 296.191 200.152C298.667 205.249 299.905 211.643 299.905 219.332C299.905 226.817 298.696 233.138 296.279 238.293C293.891 243.419 290.628 247.308 286.492 249.958C282.386 252.58 277.784 253.89 272.687 253.89C269.075 253.89 266.002 253.293 263.468 252.099C260.963 250.905 258.91 249.405 257.308 247.599C255.706 245.764 254.483 243.915 253.638 242.05H253.07V277.963H234.458ZM252.677 219.245C252.677 223.235 253.23 226.716 254.337 229.686C255.444 232.657 257.046 234.973 259.143 236.633C261.24 238.264 263.788 239.08 266.788 239.08C269.818 239.08 272.381 238.25 274.478 236.589C276.575 234.9 278.162 232.57 279.24 229.599C280.347 226.599 280.9 223.148 280.9 219.245C280.9 215.371 280.361 211.963 279.284 209.021C278.206 206.08 276.619 203.779 274.522 202.118C272.424 200.458 269.847 199.628 266.788 199.628C263.759 199.628 261.196 200.429 259.099 202.031C257.031 203.633 255.444 205.905 254.337 208.847C253.23 211.788 252.677 215.254 252.677 219.245ZM342.895 254.109C335.993 254.109 330.051 252.711 325.07 249.915C320.119 247.089 316.303 243.099 313.624 237.944C310.944 232.759 309.604 226.628 309.604 219.55C309.604 212.648 310.944 206.589 313.624 201.376C316.303 196.162 320.075 192.099 324.939 189.186C329.832 186.274 335.57 184.817 342.153 184.817C346.58 184.817 350.701 185.531 354.517 186.958C358.362 188.356 361.711 190.468 364.565 193.293C367.449 196.118 369.692 199.672 371.294 203.953C372.896 208.206 373.697 213.186 373.697 218.895V224.007H317.031V212.473H356.177C356.177 209.793 355.595 207.419 354.43 205.351C353.264 203.283 351.648 201.667 349.58 200.502C347.541 199.308 345.167 198.711 342.459 198.711C339.633 198.711 337.128 199.366 334.944 200.677C332.789 201.958 331.099 203.691 329.876 205.876C328.653 208.031 328.027 210.434 327.997 213.084V224.05C327.997 227.371 328.609 230.24 329.832 232.657C331.085 235.075 332.847 236.939 335.119 238.25C337.391 239.56 340.085 240.216 343.201 240.216C345.269 240.216 347.162 239.924 348.881 239.342C350.599 238.759 352.07 237.885 353.294 236.72C354.517 235.555 355.449 234.128 356.09 232.439L373.303 233.575C372.43 237.711 370.638 241.322 367.93 244.41C365.25 247.468 361.784 249.856 357.531 251.575C353.308 253.264 348.429 254.109 342.895 254.109ZM385.842 252.798V185.691H403.886V197.4H404.585C405.808 193.235 407.862 190.089 410.745 187.963C413.629 185.808 416.949 184.73 420.706 184.73C421.638 184.73 422.643 184.788 423.721 184.905C424.799 185.021 425.745 185.181 426.561 185.385V201.9C425.687 201.638 424.478 201.405 422.935 201.201C421.391 200.997 419.978 200.895 418.697 200.895C415.959 200.895 413.512 201.492 411.357 202.686C409.231 203.851 407.541 205.482 406.289 207.58C405.066 209.677 404.454 212.094 404.454 214.832V252.798H385.842Z" fill="#0094FF"/>
<path d="M67.4953 145H35.7767V55.524H67.7574C76.7574 55.524 84.505 57.3153 91.0002 60.8978C97.4953 64.4512 102.49 69.5629 105.986 76.2328C109.51 82.9027 111.272 90.8834 111.272 100.175C111.272 109.495 109.51 117.505 105.986 124.204C102.49 130.903 97.4662 136.044 90.9128 139.626C84.3885 143.209 76.5827 145 67.4953 145ZM54.6942 128.791H66.7088C72.3011 128.791 77.005 127.801 80.8205 125.82C84.6652 123.811 87.5487 120.709 89.471 116.514C91.4225 112.291 92.3982 106.845 92.3982 100.175C92.3982 93.563 91.4225 88.16 89.471 83.9659C87.5487 79.7717 84.6798 76.6843 80.8642 74.7037C77.0487 72.7231 72.3448 71.7328 66.7525 71.7328H54.6942V128.791ZM173.824 81.2571C173.475 77.7328 171.975 74.995 169.324 73.0435C166.674 71.092 163.077 70.1163 158.533 70.1163C155.446 70.1163 152.839 70.5532 150.713 71.427C148.586 72.2717 146.955 73.4513 145.819 74.9658C144.713 76.4804 144.159 78.1989 144.159 80.1212C144.101 81.7231 144.436 83.1212 145.164 84.3154C145.921 85.5096 146.955 86.5435 148.266 87.4173C149.577 88.262 151.091 89.0047 152.81 89.6455C154.528 90.2571 156.363 90.7814 158.315 91.2183L166.354 93.1406C170.256 94.0144 173.839 95.1795 177.101 96.6358C180.363 98.0921 183.189 99.8834 185.577 102.01C187.965 104.136 189.815 106.641 191.125 109.524C192.465 112.408 193.15 115.714 193.179 119.442C193.15 124.917 191.752 129.665 188.985 133.684C186.247 137.675 182.286 140.777 177.101 142.99C171.946 145.175 165.727 146.267 158.446 146.267C151.222 146.267 144.931 145.16 139.572 142.947C134.242 140.733 130.077 137.456 127.077 133.116C124.106 128.748 122.548 123.345 122.402 116.908H140.708C140.912 119.908 141.771 122.413 143.285 124.422C144.829 126.403 146.883 127.903 149.446 128.922C152.038 129.913 154.965 130.408 158.227 130.408C161.431 130.408 164.213 129.942 166.572 129.01C168.96 128.078 170.81 126.782 172.121 125.121C173.431 123.461 174.087 121.553 174.087 119.398C174.087 117.388 173.489 115.699 172.295 114.33C171.13 112.961 169.412 111.796 167.14 110.835C164.897 109.874 162.145 109 158.883 108.213L149.14 105.767C141.596 103.932 135.64 101.063 131.271 97.1601C126.902 93.2571 124.732 87.9998 124.761 81.3882C124.732 75.9707 126.174 71.2377 129.086 67.1891C132.028 63.1406 136.062 59.9804 141.188 57.7085C146.315 55.4367 152.14 54.3007 158.664 54.3007C165.305 54.3007 171.101 55.4367 176.053 57.7085C181.033 59.9804 184.907 63.1406 187.674 67.1891C190.441 71.2377 191.868 75.927 191.956 81.2571H173.824ZM35.7767 243V153.524H54.6942V190.442H93.0973V153.524H111.971V243H93.0973V206.039H54.6942V243H35.7767ZM157.801 244.311C150.898 244.311 144.957 242.913 139.976 240.116C135.025 237.291 131.209 233.301 128.529 228.146C125.85 222.961 124.51 216.83 124.51 209.752C124.51 202.849 125.85 196.791 128.529 191.578C131.209 186.364 134.981 182.301 139.845 179.388C144.738 176.476 150.476 175.019 157.059 175.019C161.486 175.019 165.607 175.733 169.423 177.16C173.267 178.558 176.617 180.67 179.471 183.495C182.355 186.32 184.598 189.874 186.199 194.155C187.801 198.408 188.602 203.388 188.602 209.097V214.209H131.937V202.675H171.083C171.083 199.995 170.5 197.621 169.335 195.553C168.17 193.485 166.554 191.869 164.486 190.704C162.447 189.51 160.073 188.912 157.364 188.912C154.539 188.912 152.034 189.568 149.85 190.879C147.694 192.16 146.005 193.893 144.782 196.078C143.559 198.233 142.932 200.636 142.903 203.286V214.252C142.903 217.573 143.515 220.442 144.738 222.859C145.991 225.277 147.753 227.141 150.025 228.451C152.296 229.762 154.991 230.417 158.107 230.417C160.175 230.417 162.068 230.126 163.787 229.544C165.505 228.961 166.976 228.087 168.199 226.922C169.423 225.757 170.355 224.33 170.996 222.641L188.209 223.777C187.335 227.913 185.544 231.524 182.835 234.612C180.156 237.67 176.69 240.058 172.437 241.777C168.214 243.466 163.335 244.311 157.801 244.311ZM219.36 153.524V243H200.748V153.524H219.36ZM234.269 268.165V175.893H252.618V187.165H253.448C254.264 185.359 255.444 183.524 256.987 181.66C258.56 179.767 260.599 178.194 263.104 176.942C265.638 175.66 268.783 175.019 272.541 175.019C277.434 175.019 281.948 176.301 286.084 178.864C290.22 181.398 293.526 185.228 296.002 190.354C298.478 195.451 299.716 201.845 299.716 209.534C299.716 217.019 298.507 223.34 296.089 228.495C293.701 233.621 290.439 237.51 286.303 240.16C282.196 242.782 277.594 244.092 272.497 244.092C268.885 244.092 265.813 243.495 263.279 242.301C260.774 241.107 258.72 239.607 257.118 237.801C255.516 235.966 254.293 234.116 253.448 232.252H252.88V268.165H234.269ZM252.487 209.447C252.487 213.437 253.041 216.917 254.147 219.888C255.254 222.859 256.856 225.175 258.953 226.835C261.05 228.466 263.599 229.282 266.599 229.282C269.628 229.282 272.191 228.451 274.288 226.791C276.385 225.102 277.973 222.772 279.05 219.801C280.157 216.801 280.711 213.349 280.711 209.447C280.711 205.573 280.172 202.165 279.094 199.223C278.016 196.281 276.429 193.98 274.332 192.32C272.235 190.66 269.657 189.83 266.599 189.83C263.57 189.83 261.007 190.631 258.91 192.233C256.842 193.835 255.254 196.107 254.147 199.048C253.041 201.99 252.487 205.456 252.487 209.447ZM342.706 244.311C335.803 244.311 329.861 242.913 324.881 240.116C319.929 237.291 316.114 233.301 313.434 228.146C310.754 222.961 309.415 216.83 309.415 209.752C309.415 202.849 310.754 196.791 313.434 191.578C316.114 186.364 319.885 182.301 324.75 179.388C329.643 176.476 335.381 175.019 341.963 175.019C346.39 175.019 350.512 175.733 354.327 177.16C358.172 178.558 361.521 180.67 364.376 183.495C367.259 186.32 369.502 189.874 371.104 194.155C372.706 198.408 373.507 203.388 373.507 209.097V214.209H316.842V202.675H355.988C355.988 199.995 355.405 197.621 354.24 195.553C353.075 193.485 351.458 191.869 349.39 190.704C347.352 189.51 344.978 188.912 342.269 188.912C339.444 188.912 336.939 189.568 334.754 190.879C332.599 192.16 330.91 193.893 329.686 196.078C328.463 198.233 327.837 200.636 327.808 203.286V214.252C327.808 217.573 328.419 220.442 329.643 222.859C330.895 225.277 332.657 227.141 334.929 228.451C337.201 229.762 339.895 230.417 343.012 230.417C345.08 230.417 346.973 230.126 348.691 229.544C350.41 228.961 351.881 228.087 353.104 226.922C354.327 225.757 355.259 224.33 355.9 222.641L373.114 223.777C372.24 227.913 370.449 231.524 367.74 234.612C365.06 237.67 361.594 240.058 357.342 241.777C353.119 243.466 348.24 244.311 342.706 244.311ZM385.653 243V175.893H403.696V187.602H404.395C405.619 183.437 407.672 180.291 410.556 178.165C413.439 176.01 416.76 174.932 420.517 174.932C421.449 174.932 422.454 174.99 423.531 175.107C424.609 175.223 425.556 175.383 426.371 175.587V192.102C425.497 191.84 424.289 191.607 422.745 191.403C421.201 191.199 419.789 191.097 418.507 191.097C415.769 191.097 413.323 191.694 411.167 192.888C409.041 194.053 407.352 195.684 406.099 197.781C404.876 199.879 404.264 202.296 404.264 205.034V243H385.653Z" fill="white"/>
<rect x="28" y="286" width="165" height="22" fill="white"/>
</svg>
